<svg width="267" height="44" viewBox="0 0 267 44" fill="none" xmlns="http://www.w3.org/2000/svg">
<rect width="267" height="44" rx="8" fill="#F6F6F6"/>
<path d="M36.6363 29.697C36.9292 29.9899 37.404 29.9899 37.6969 29.697C37.9898 29.4041 37.9898 28.9292 37.6969 28.6363L36.6363 29.697ZM33.9166 20.8333C33.9166 23.6408 31.6407 25.9167 28.8333 25.9167V27.4167C32.4691 27.4167 35.4166 24.4692 35.4166 20.8333H33.9166ZM28.8333 25.9167C26.0258 25.9167 23.7499 23.6408 23.7499 20.8333H22.2499C22.2499 24.4692 25.1974 27.4167 28.8333 27.4167V25.9167ZM23.7499 20.8333C23.7499 18.0259 26.0258 15.75 28.8333 15.75V14.25C25.1974 14.25 22.2499 17.1975 22.2499 20.8333H23.7499ZM28.8333 15.75C31.6407 15.75 33.9166 18.0259 33.9166 20.8333H35.4166C35.4166 17.1975 32.4691 14.25 28.8333 14.25V15.75ZM32.4696 25.5303L36.6363 29.697L37.6969 28.6363L33.5303 24.4697L32.4696 25.5303Z" fill="#807D7E"/>
<path d="M52.5749 26.276L53.5669 25.62C53.9349 26.596 55.2149 27.476 56.9429 27.476C58.7349 27.476 59.4869 26.804 59.4869 25.604C59.4869 24.244 57.4549 23.924 56.5109 23.652C55.5029 23.38 52.9429 22.948 52.9429 20.804C52.9429 18.852 54.6069 17.924 56.8309 17.924C58.7509 17.924 60.2869 18.852 60.6709 19.988L59.6789 20.58C59.3909 19.812 58.2069 19.124 56.7029 19.124C55.1509 19.124 54.3029 19.732 54.3029 20.756C54.3029 22.036 56.1589 22.308 57.1829 22.58C58.1109 22.852 60.8149 23.396 60.8149 25.556C60.8149 27.604 59.3269 28.676 56.8309 28.676C54.5909 28.676 53.0709 27.636 52.5749 26.276ZM65.9123 21.012C68.0243 21.012 69.4323 22.628 69.4323 24.82V25.188H63.4003C63.5443 26.66 64.5523 27.636 66.0083 27.636C67.0963 27.636 67.8483 27.14 68.2643 26.516L69.0803 27.108C68.4403 28.052 67.3523 28.644 66.0083 28.644C63.7682 28.644 62.2803 27.012 62.2803 24.82C62.2803 22.628 63.7043 21.012 65.9123 21.012ZM65.9123 21.972C64.4723 21.972 63.5603 22.948 63.4003 24.388H68.3603C68.2003 22.996 67.2883 21.972 65.9123 21.972ZM77.319 21.14H78.487V28.5H77.319V27.172C76.759 28.052 75.831 28.628 74.583 28.628C72.487 28.628 70.999 27.012 70.999 24.82C70.999 22.612 72.487 21.028 74.583 21.028C75.831 21.028 76.759 21.588 77.319 22.468V21.14ZM74.727 27.524C76.311 27.524 77.319 26.388 77.319 24.82C77.319 23.252 76.311 22.132 74.727 22.132C73.159 22.132 72.119 23.252 72.119 24.82C72.119 26.388 73.159 27.524 74.727 27.524ZM81.6406 22.5C82.2006 21.492 83.1926 21.044 84.2326 21.028V22.132C83.0966 22.148 81.6406 22.74 81.6406 24.532V28.5H80.4886V21.14H81.6406V22.5ZM90.8554 23.14C90.4394 22.564 89.7514 22.132 88.7434 22.132C87.1594 22.132 86.1194 23.252 86.1194 24.82C86.1194 26.388 87.1594 27.524 88.7434 27.524C89.7514 27.524 90.4234 27.092 90.8554 26.516L91.7034 27.14C91.0634 28.068 90.0074 28.628 88.7114 28.628C86.5034 28.628 84.9834 27.028 84.9834 24.82C84.9834 22.612 86.5034 21.028 88.7114 21.028C90.0074 21.028 91.0634 21.588 91.7034 22.5L90.8554 23.14ZM96.8524 21.028C98.3244 21.028 99.7804 21.892 99.7804 23.972V28.5H98.6284V24.132C98.6284 22.724 97.6364 22.036 96.5484 22.036C95.4444 22.036 94.4844 22.724 94.4844 24.132V28.5H93.3324V18.1H94.4844V22.132C95.0444 21.364 95.9404 21.028 96.8524 21.028Z" fill="#807D7E"/>
</svg>
